<?xml version="1.0" encoding="UTF-8" standalone="no"?>
<!-- Created with Inkscape (http://www.inkscape.org/) -->

<svg
   width="256"
   height="256"
   viewBox="0 0 67.733325 67.733325"
   version="1.1"
   id="svg1"
   inkscape:version="1.3.2 (091e20e, 2023-11-25, custom)"
   sodipodi:docname="pieces.svg"
   inkscape:export-filename="pieces.png"
   inkscape:export-xdpi="96"
   inkscape:export-ydpi="96"
   xmlns:inkscape="http://www.inkscape.org/namespaces/inkscape"
   xmlns:sodipodi="http://sodipodi.sourceforge.net/DTD/sodipodi-0.dtd"
   xmlns="http://www.w3.org/2000/svg"
   xmlns:svg="http://www.w3.org/2000/svg">
  <sodipodi:namedview
     id="namedview1"
     pagecolor="#ffffff"
     bordercolor="#000000"
     borderopacity="0.25"
     inkscape:showpageshadow="2"
     inkscape:pageopacity="0.0"
     inkscape:pagecheckerboard="true"
     inkscape:deskcolor="#d1d1d1"
     inkscape:document-units="mm"
     showgrid="true"
     inkscape:zoom="1.5702743"
     inkscape:cx="-9.8708872"
     inkscape:cy="-39.165133"
     inkscape:window-width="2560"
     inkscape:window-height="1351"
     inkscape:window-x="-9"
     inkscape:window-y="-9"
     inkscape:window-maximized="1"
     inkscape:current-layer="layer1">
    <inkscape:grid
       id="grid1"
       units="px"
       originx="0"
       originy="0"
       spacingx="16.933333"
       spacingy="16.933333"
       empcolor="#0099e5"
       empopacity="0.30196078"
       color="#0099e5"
       opacity="0.14901961"
       empspacing="8"
       dotted="false"
       gridanglex="30"
       gridanglez="30"
       visible="true"
       enabled="true" />
    <inkscape:grid
       id="grid2"
       units="mm"
       originx="0"
       originy="0"
       spacingx="2.1166666"
       spacingy="2.1166666"
       empcolor="#56e500"
       empopacity="0.30196078"
       color="#ace500"
       opacity="0.14901961"
       empspacing="4"
       dotted="false"
       gridanglex="30"
       gridanglez="30"
       visible="true" />
  </sodipodi:namedview>
  <defs
     id="defs1" />
  <g
     inkscape:label="Layer 1"
     inkscape:groupmode="layer"
     id="layer1">
    <ellipse
       style="fill:#000000;stroke-width:0.874001;stroke-linecap:round;stroke-opacity:0.420253"
       id="path2"
       cx="8.4666662"
       cy="8.4666662"
       rx="6.3499999"
       ry="6.3499994" />
    <ellipse
       style="fill:#ffffff;fill-opacity:1;stroke:#000000;stroke-width:0.529167;stroke-linecap:round;stroke-dasharray:none;stroke-opacity:1"
       id="ellipse2"
       cx="8.4666662"
       cy="25.399998"
       rx="6.3499999"
       ry="6.3499994" />
    <path
       id="path3"
       style="color:#000000;fill:#000000;stroke:#ffffff;stroke-width:1;stroke-linecap:round;stroke-linejoin:round;stroke-dasharray:none;stroke-opacity:1;paint-order:stroke fill markers"
       d="m 42.33385,3.4395833 a 0.79374999,0.79374999 0 0 0 -0.794783,0.7927165 v 2.9502075 l -3.08405,-1.5420247 a 0.79374999,0.79374999 0 0 0 -0.605648,-0.042892 0.79374999,0.79374999 0 0 0 -0.458886,0.3963583 0.79374999,0.79374999 0 0 0 0.353466,1.0666015 l 2.813265,1.4061158 -2.813265,1.4066325 a 0.79374999,0.79374999 0 0 0 -0.353466,1.0640183 0.79374999,0.79374999 0 0 0 1.064534,0.355534 l 3.08405,-1.5415087 v 2.9476237 a 0.79374999,0.79374999 0 0 0 0.794783,0.795301 0.79374999,0.79374999 0 0 0 0.793233,-0.795301 V 9.7513428 l 3.08405,1.5415082 A 0.79374999,0.79374999 0 0 0 47.277218,10.937317 0.79374999,0.79374999 0 0 0 46.921684,9.8732992 L 44.108419,8.4666667 46.921684,7.0605509 a 0.79374999,0.79374999 0 0 0 0.355534,-1.0666015 0.79374999,0.79374999 0 0 0 -0.458887,-0.3963583 0.79374999,0.79374999 0 0 0 -0.607198,0.042892 l -3.08405,1.5420247 V 4.2322998 A 0.79374999,0.79374999 0 0 0 42.33385,3.4395833 Z" />
    <path
       id="path6"
       style="color:#000000;fill:#000000;stroke:#ffffff;stroke-width:1;stroke-linecap:round;stroke-linejoin:round;stroke-dasharray:none;stroke-opacity:1;paint-order:stroke fill markers"
       d="m 59.2677,3.4395833 c -1.013474,0 -1.751837,0.7689567 -2.2071,1.6794841 -0.358958,0.7179158 -0.58951,1.591859 -0.671277,2.5548828 h -1.35599 A 0.79374999,0.79374999 0 0 0 54.2401,8.4666667 0.79374999,0.79374999 0 0 0 55.033333,9.2598999 h 1.35599 c 0.08179,0.9628991 0.312358,1.8365291 0.671277,2.5543661 0.455263,0.910527 1.193626,1.680001 2.2071,1.680001 1.013474,0 1.74977,-0.769474 2.205034,-1.680001 0.358918,-0.717837 0.589485,-1.591467 0.671276,-2.5543661 H 63.5 A 0.79374999,0.79374999 0 0 0 64.292716,8.4666667 0.79374999,0.79374999 0 0 0 63.5,7.6739502 H 62.14401 C 62.062243,6.7109264 61.831691,5.8369832 61.472734,5.1190674 61.01747,4.20854 60.281174,3.4395833 59.2677,3.4395833 Z m 0,1.5880168 c 0.155527,0 0.474149,0.1788332 0.784965,0.8004679 0.230968,0.4619356 0.415097,1.1086881 0.494544,1.8458822 H 57.986125 C 58.065572,6.9367561 58.2497,6.2900036 58.480668,5.828068 58.791485,5.2064333 59.112173,5.0276002 59.2677,5.0276001 Z m -1.281575,4.2322998 h 2.561084 c -0.07945,0.737194 -0.263576,1.3834291 -0.494544,1.8453651 -0.310816,0.621635 -0.629438,0.800985 -0.784965,0.800985 -0.155527,0 -0.476215,-0.17935 -0.787032,-0.800985 C 58.2497,10.643329 58.065572,9.9970939 57.986125,9.2598999 Z" />
    <path
       id="path1025"
       style="color:#000000;fill:#ffffff;fill-opacity:1;stroke:#000000;stroke-width:1;stroke-linecap:round;stroke-linejoin:round;stroke-dasharray:none;stroke-opacity:1;paint-order:stroke fill markers"
       d="m 42.33385,20.372784 a 0.79374999,0.79374999 0 0 0 -0.794783,0.792717 v 2.950207 l -3.08405,-1.542024 a 0.79374999,0.79374999 0 0 0 -0.605648,-0.04289 0.79374999,0.79374999 0 0 0 -0.458886,0.396359 0.79374999,0.79374999 0 0 0 0.353466,1.066601 l 2.813265,1.406116 -2.813265,1.406632 a 0.79374999,0.79374999 0 0 0 -0.353466,1.064018 0.79374999,0.79374999 0 0 0 1.064534,0.355534 l 3.08405,-1.541508 v 2.947623 a 0.79374999,0.79374999 0 0 0 0.794783,0.795301 0.79374999,0.79374999 0 0 0 0.793233,-0.795301 v -2.947623 l 3.08405,1.541508 A 0.79374999,0.79374999 0 0 0 47.277218,27.870518 0.79374999,0.79374999 0 0 0 46.921684,26.8065 l -2.813265,-1.406632 2.813265,-1.406116 a 0.79374999,0.79374999 0 0 0 0.355534,-1.066601 0.79374999,0.79374999 0 0 0 -0.458887,-0.396359 0.79374999,0.79374999 0 0 0 -0.607198,0.04289 l -3.08405,1.542024 V 21.165501 A 0.79374999,0.79374999 0 0 0 42.33385,20.372784 Z" />
    <path
       id="path1026"
       style="color:#000000;fill:#ffffff;fill-opacity:1;stroke:#000000;stroke-width:1;stroke-linecap:round;stroke-linejoin:round;stroke-dasharray:none;stroke-opacity:1;paint-order:stroke fill markers"
       d="m 59.2677,20.372784 c -1.013474,0 -1.751837,0.768957 -2.2071,1.679485 -0.358958,0.717915 -0.58951,1.591859 -0.671277,2.554882 h -1.35599 a 0.79374999,0.79374999 0 0 0 -0.793233,0.792717 0.79374999,0.79374999 0 0 0 0.793233,0.793233 h 1.35599 c 0.08179,0.962899 0.312358,1.836529 0.671277,2.554366 0.455263,0.910527 1.193626,1.680001 2.2071,1.680001 1.013474,0 1.74977,-0.769474 2.205034,-1.680001 C 61.831652,28.02963 62.062219,27.156 62.14401,26.193101 H 63.5 A 0.79374999,0.79374999 0 0 0 64.292716,25.399868 0.79374999,0.79374999 0 0 0 63.5,24.607151 H 62.14401 C 62.062243,23.644128 61.831691,22.770184 61.472734,22.052269 61.01747,21.141741 60.281174,20.372784 59.2677,20.372784 Z m 0,1.588017 c 0.155527,0 0.474149,0.178833 0.784965,0.800468 0.230968,0.461936 0.415097,1.108688 0.494544,1.845882 h -2.561084 c 0.07945,-0.737194 0.263575,-1.383946 0.494543,-1.845882 0.310817,-0.621635 0.631505,-0.800468 0.787032,-0.800468 z m -1.281575,4.2323 h 2.561084 c -0.07945,0.737194 -0.263576,1.383429 -0.494544,1.845365 -0.310816,0.621635 -0.629438,0.800985 -0.784965,0.800985 -0.155527,0 -0.476215,-0.17935 -0.787032,-0.800985 C 58.2497,27.57653 58.065572,26.930295 57.986125,26.193101 Z" />
    <path
       style="color:#000000;fill:#000000;stroke-linecap:round;stroke-linejoin:round;-inkscape-stroke:none;paint-order:stroke fill markers;stroke:#ffffff;stroke-opacity:1"
       d="m 21.166016,3.4394531 a 0.79382936,0.79382936 0 0 0 -0.792969,0.7929688 v 8.4667971 a 0.79382936,0.79382936 0 0 0 0.792969,0.794922 h 8.466796 a 0.79382936,0.79382936 0 0 0 0.794922,-0.794922 V 4.2324219 A 0.79382936,0.79382936 0 0 0 29.632812,3.4394531 Z m 0.794921,1.5878906 h 6.878907 V 11.90625 h -6.878907 z"
       id="rect1" />
    <path
       style="color:#000000;fill:#ffffff;stroke:#000000;stroke-linecap:round;stroke-linejoin:round;stroke-opacity:1;-inkscape-stroke:none;paint-order:stroke fill markers;fill-opacity:1"
       d="m 21.16547,20.372783 a 0.79382936,0.79382936 0 0 0 -0.792969,0.792969 v 8.466797 a 0.79382936,0.79382936 0 0 0 0.792969,0.794922 h 8.466796 a 0.79382936,0.79382936 0 0 0 0.794922,-0.794922 v -8.466797 a 0.79382936,0.79382936 0 0 0 -0.794922,-0.792969 z m 0.794921,1.58789 h 6.878907 v 6.878907 h -6.878907 z"
       id="path1" />
  </g>
</svg>
