<?xml version="1.0" encoding="UTF-8" standalone="no"?>
<!-- Created with Inkscape (http://www.inkscape.org/) -->

<svg
   width="1024"
   height="768"
   viewBox="0 0 270.93333 203.2"
   version="1.1"
   id="svg1"
   inkscape:version="1.3.2 (091e20e, 2023-11-25, custom)"
   sodipodi:docname="board_newspaper.svg"
   xmlns:inkscape="http://www.inkscape.org/namespaces/inkscape"
   xmlns:sodipodi="http://sodipodi.sourceforge.net/DTD/sodipodi-0.dtd"
   xmlns:xlink="http://www.w3.org/1999/xlink"
   xmlns="http://www.w3.org/2000/svg"
   xmlns:svg="http://www.w3.org/2000/svg">
  <sodipodi:namedview
     id="namedview1"
     pagecolor="#eeeeee"
     bordercolor="#000000"
     borderopacity="0.25"
     inkscape:showpageshadow="2"
     inkscape:pageopacity="0.0"
     inkscape:pagecheckerboard="0"
     inkscape:deskcolor="#d1d1d1"
     inkscape:document-units="mm"
     showgrid="true"
     inkscape:zoom="0.50644992"
     inkscape:cx="-21.719818"
     inkscape:cy="540.03366"
     inkscape:window-width="2560"
     inkscape:window-height="1351"
     inkscape:window-x="-9"
     inkscape:window-y="-9"
     inkscape:window-maximized="1"
     inkscape:current-layer="layer1">
    <inkscape:grid
       id="grid1"
       units="px"
       originx="0"
       originy="101.6"
       spacingx="16.933333"
       spacingy="9.7764654"
       empcolor="#0099e5"
       empopacity="0.30196078"
       color="#0099e5"
       opacity="0.14901961"
       empspacing="5"
       dotted="false"
       gridanglex="30"
       gridanglez="30"
       visible="true"
       enabled="true" />
  </sodipodi:namedview>
  <defs
     id="defs1">
    <pattern
       inkscape:collect="always"
       xlink:href="#Ocean"
       preserveAspectRatio="xMidYMid"
       id="pattern158"
       patternTransform="matrix(0.1,0,0,0.1,319.25468,454.22891)"
       x="0"
       y="0" />
    <pattern
       patternUnits="userSpaceOnUse"
       preserveAspectRatio="xMidYMid"
       width="103.67342"
       height="75.855916"
       patternTransform="translate(319.25468,454.22891)"
       style="fill:#6f6f6f"
       id="Ocean"
       inkscape:collect="always"
       inkscape:isstock="true"
       inkscape:label="Ocean">
      <path
         id="path48330"
         style="font-variation-settings:normal;opacity:1;fill-opacity:1;stroke:none;stroke-width:10.186;stroke-linecap:butt;stroke-linejoin:miter;stroke-miterlimit:4;stroke-dasharray:none;stroke-dashoffset:0;stroke-opacity:1;paint-order:markers fill stroke;stop-color:#000000;stop-opacity:1"
         d="M 7.8918954,0 C 5.7541795,2.541086 3.0719622,4.6302954 0,6.1566047 V 12.620455 C 5.0627792,9.8201461 9.0803376,5.3788271 11.337449,0 Z M 15.367128,0 C 19.281755,9.3296617 28.48549,15.851051 39.269658,15.851051 50.053799,15.851051 59.258513,9.3296617 63.173499,0 H 59.729272 C 55.006193,5.6138117 47.62139,9.0272391 39.269658,9.0272391 32.030328,9.0272391 26.433691,5.2994948 22.507427,0 Z m 51.836051,0 c 3.914985,9.3296617 13.119688,15.851051 23.90386,15.851051 4.566758,0 8.8477,-1.173717 12.566381,-3.230596 V 6.1566047 C 99.958741,8.0022539 95.678358,9.0272391 91.107039,9.0272391 83.867679,9.0272391 78.271064,5.2994948 74.3448,0 Z m -37.98005,23.168054 c -0.446441,0.04388 -3.304444,2.73611 -3.304444,2.73611 0,14.358198 11.558653,25.918688 25.917358,25.918688 14.358712,0 25.918696,-11.56049 25.918696,-25.918688 -0.05737,0.07631 -0.701511,0.667215 -0.701511,0.667215 -2.650446,10.988353 -12.882765,18.427657 -25.217185,18.427657 -12.334337,0 -19.907093,-10.814967 -22.557543,-21.803293 -0.0076,-0.02305 -0.0257,-0.03061 -0.05537,-0.02797 z m 48.53161,2.73611 c 0,14.358198 11.559976,25.918688 25.918681,25.918688 v -6.823816 c -12.334413,0 -19.907089,-10.814967 -22.557543,-21.803293 -0.108208,-0.355276 -3.361138,2.708421 -3.361138,2.708421 z m -51.836054,0 c -0.05741,0.07631 -0.702834,0.667215 -0.702834,0.667215 C 22.565401,37.559732 12.334337,44.999036 0,44.999036 v 6.823816 c 14.358705,0 25.918685,-11.56049 25.918685,-25.918688 z m -9.235582,37.163833 c -0.446442,0.04384 -3.304445,2.736114 -3.304445,2.736114 0,3.568365 0.714879,6.963553 2.008245,10.051805 h 7.135018 c -2.757033,-3.72669 -4.690155,-8.227654 -5.783448,-12.760215 -0.0076,-0.02268 -0.0257,-0.03024 -0.05537,-0.02646 z m -3.304445,2.736114 c -0.05741,0.07672 -0.702833,0.667238 -0.702833,0.667238 -0.85412,3.541039 -2.499084,6.710815 -4.7443541,9.384567 h 3.4389431 c 1.293494,-3.088252 2.008244,-6.48344 2.008244,-10.051805 z m 55.141818,-2.736114 c -0.446517,0.04384 -3.305767,2.736114 -3.305767,2.736114 0,3.568365 0.71475,6.963553 2.008244,10.051805 h 7.136345 c -2.757006,-3.72669 -4.690152,-8.227654 -5.783448,-12.760215 -0.0076,-0.02268 -0.0257,-0.03024 -0.05537,-0.02646 z m -3.305767,2.736114 c -0.05741,0.07672 -0.701507,0.667238 -0.701507,0.667238 -0.85412,3.541039 -2.498907,6.710815 -4.744377,9.384567 h 3.437639 c 1.293494,-3.088252 2.008245,-6.48344 2.008245,-10.051805 z" />
    </pattern>
    <clipPath
       clipPathUnits="userSpaceOnUse"
       id="clipPath15">
      <rect
         style="fill:none;stroke:#000000;stroke-linecap:butt;stroke-linejoin:bevel;paint-order:stroke markers fill;stop-color:#000000"
         id="rect15-7"
         width="45.034248"
         height="38.955639"
         x="262.48285"
         y="121.00073" />
    </clipPath>
    <pattern
       inkscape:collect="always"
       xlink:href="#pattern34-30"
       preserveAspectRatio="xMidYMid"
       id="pattern125"
       patternTransform="matrix(0.7,0,0,0.7,1100,535)"
       x="0"
       y="0" />
    <pattern
       patternUnits="userSpaceOnUse"
       width="10"
       height="10"
       patternTransform="translate(1100,535) scale(2)"
       preserveAspectRatio="xMidYMid"
       style="fill:#000000"
       id="pattern34-30"
       inkscape:label="Circle fill 4"
       inkscape:collect="always"
       inkscape:isstock="true">
      <path
         id="path34-4"
         style="paint-order:stroke markers fill;stop-color:#000000"
         d="m 10,9.99997 -5,-2e-5 C 8,9.99997 10,7.99999 10,5 Z m -5,-5 h 5 c -3,0 -5,2 -5,5 z m 0,0 -5,2e-5 c 3,-2e-5 5,1.99996 5,4.99995 z m -5,5 h 5 c -3,0 -5,-2 -5,-5 z M 10,0 5,2e-5 C 8,0 10,1.99998 10,4.99997 Z M 5,5 h 5 C 7,5 5,3 5,0 Z m 0,0 -5,-2e-5 C 3,5 5,3.00002 5,3e-5 Z M 0,0 H 5 C 2,0 0,2 0,5 Z" />
    </pattern>
    <pattern
       inkscape:collect="always"
       xlink:href="#pattern25-8"
       preserveAspectRatio="xMidYMid"
       id="pattern124"
       patternTransform="matrix(0.1,0,0,0.1,946.66407,457.29883)"
       x="0"
       y="0" />
    <clipPath
       clipPathUnits="userSpaceOnUse"
       id="clipPath25">
      <rect
         style="fill:#ff0000;stroke:none;stroke-width:3;stroke-linecap:square;stroke-linejoin:miter;paint-order:stroke markers fill;stop-color:#000000"
         id="rect25-8"
         width="78"
         height="45.033199"
         x="763.61322"
         y="452.82422" />
    </clipPath>
    <pattern
       patternUnits="userSpaceOnUse"
       width="78"
       height="45.033199"
       patternTransform="translate(946.66407,457.29883) scale(0.6)"
       preserveAspectRatio="xMidYMid"
       id="pattern25-8"
       style="fill:#000000"
       inkscape:label="Tiles 3"
       inkscape:collect="always"
       inkscape:isstock="true">
      <g
         id="g13"
         transform="translate(-763.61322,-452.82422)"
         clip-path="url(#clipPath25)">
        <path
           id="path11-0"
           style="color:#000000;stroke-width:3;stroke-linecap:square;paint-order:stroke markers fill"
           d="m 805.62688,448.21094 -12.5,7.21679 v 14.43555 l -12.5,7.2168 v 14.43359 l 12.5,7.2168 12.5,-7.2168 12.5,7.2168 12.5,-7.2168 v -14.43359 l -12.5,-7.2168 v -14.43555 z m 0,9.22265 4.51368,2.60547 v 14.4336 l 12.5,7.21679 v 5.21289 l -4.51368,2.60547 -12.5,-7.21679 -12.5,7.21679 -4.51367,-2.60547 v -5.21289 l 12.5,-7.21679 v -14.4336 z m 0,1.73243 -3.01367,1.73828 v 14.43359 l -12.5,7.21875 v 3.47852 l 3.01367,1.74023 12.5,-7.2168 12.5,7.2168 3.01563,-1.74023 v -3.47852 l -12.50195,-7.21875 V 460.9043 Z"
           sodipodi:nodetypes="ccccccccccccccccccccccccccccccccccccccc" />
        <path
           id="path20-8"
           style="color:#000000;stroke-width:3;stroke-linecap:square;paint-order:stroke markers fill"
           d="m 805.62688,403.17774 -12.5,7.2168 v 14.43554 l -12.5,7.2168 v 14.43359 l 12.5,7.2168 12.5,-7.2168 12.5,7.2168 12.5,-7.2168 v -14.43359 l -12.5,-7.2168 v -14.43554 z m 0,9.22265 4.51368,2.60547 v 14.4336 l 12.5,7.21679 v 5.21289 l -4.51368,2.60547 -12.5,-7.21679 -12.5,7.21679 -4.51367,-2.60547 v -5.21289 l 12.5,-7.21679 v -14.4336 z m 0,1.73243 -3.01367,1.73828 v 14.43359 l -12.5,7.21875 v 3.47852 l 3.01367,1.74023 12.5,-7.2168 12.5,7.2168 3.01563,-1.74023 v -3.47852 l -12.50195,-7.21875 V 415.8711 Z m -39,56.59765 -12.5,7.2168 v 14.43554 l -12.5,7.2168 v 14.43359 l 12.5,7.2168 12.5,-7.2168 12.5,7.2168 12.5,-7.2168 v -14.43359 l -12.5,-7.2168 v -14.43554 z m 0,9.22265 4.51368,2.60547 v 14.4336 l 12.5,7.21679 v 5.21289 l -4.51368,2.60547 -12.5,-7.21679 -12.5,7.21679 -4.51367,-2.60547 v -5.21289 l 12.5,-7.21679 v -14.4336 z m 0,1.73243 -3.01367,1.73828 v 14.43359 l -12.5,7.21875 v 3.47852 l 3.01367,1.74023 12.5,-7.2168 12.5,7.2168 3.01563,-1.74023 v -3.47852 l -12.50195,-7.21875 v -14.43359 z m 78,-10.95508 -12.5,7.2168 v 14.43554 l -12.5,7.2168 v 14.43359 l 12.5,7.2168 12.5,-7.2168 12.5,7.2168 12.5,-7.2168 v -14.43359 l -12.5,-7.2168 v -14.43554 z m 0,9.22265 4.51368,2.60547 v 14.4336 l 12.5,7.21679 v 5.21289 l -4.51368,2.60547 -12.5,-7.21679 -12.5,7.21679 -4.51367,-2.60547 v -5.21289 l 12.5,-7.21679 v -14.4336 z m 0,1.73243 -3.01367,1.73828 v 14.43359 l -12.5,7.21875 v 3.47852 l 3.01367,1.74023 12.5,-7.2168 12.5,7.2168 3.01563,-1.74023 v -3.47852 l -12.50195,-7.21875 v -14.43359 z"
           sodipodi:nodetypes="ccccccccccccccccccccccccccccccccccccccccccccccccccccccccccccccccccccccccccccccccccccccccccccccccccccccccccccccccccccc" />
        <path
           id="path19"
           style="color:#000000;stroke-width:3;stroke-linecap:square;paint-order:stroke markers fill"
           d="m 766.62688,425.69727 -12.5,7.21679 v 14.43555 l -12.5,7.2168 V 469 l 12.5,7.2168 12.5,-7.2168 12.5,7.2168 12.5,-7.2168 v -14.43359 l -12.5,-7.2168 v -14.43555 z m 0,9.22265 4.51368,2.60547 v 14.4336 l 12.5,7.21679 v 5.21289 l -4.51368,2.60547 -12.5,-7.21679 -12.5,7.21679 -4.51367,-2.60547 v -5.21289 l 12.5,-7.21679 v -14.4336 z m 0,1.73243 -3.01367,1.73828 v 14.43359 l -12.5,7.21875 v 3.47852 l 3.01367,1.74023 12.5,-7.2168 12.5,7.2168 3.01563,-1.74023 v -3.47852 l -12.50195,-7.21875 v -14.43359 z m 78,-10.95508 -12.5,7.21679 v 14.43555 l -12.5,7.2168 V 469 l 12.5,7.2168 12.5,-7.2168 12.5,7.2168 12.5,-7.2168 v -14.43359 l -12.5,-7.2168 v -14.43555 z m 0,9.22265 4.51368,2.60547 v 14.4336 l 12.5,7.21679 v 5.21289 l -4.51368,2.60547 -12.5,-7.21679 -12.5,7.21679 -4.51367,-2.60547 v -5.21289 l 12.5,-7.21679 v -14.4336 z m 0,1.73243 -3.01367,1.73828 v 14.43359 l -12.5,7.21875 v 3.47852 l 3.01367,1.74023 12.5,-7.2168 12.5,7.2168 3.01563,-1.74023 v -3.47852 l -12.50195,-7.21875 v -14.43359 z m -39,56.59765 -12.5,7.21679 v 14.43555 l -12.5,7.2168 v 14.43359 l 12.5,7.2168 12.5,-7.2168 12.5,7.2168 12.5,-7.2168 v -14.43359 l -12.5,-7.2168 v -14.43555 z m 0,9.22265 4.51368,2.60547 v 14.4336 l 12.5,7.21679 v 5.21289 l -4.51368,2.60547 -12.5,-7.21679 -12.5,7.21679 -4.51367,-2.60547 v -5.21289 l 12.5,-7.21679 v -14.4336 z m 0,1.73243 -3.01367,1.73828 v 14.43359 l -12.5,7.21875 v 3.47852 l 3.01367,1.74023 12.5,-7.2168 12.5,7.2168 3.01563,-1.74023 v -3.47852 l -12.50195,-7.21875 v -14.43359 z"
           sodipodi:nodetypes="ccccccccccccccccccccccccccccccccccccccccccccccccccccccccccccccccccccccccccccccccccccccccccccccccccccccccccccccccccccc" />
      </g>
    </pattern>
  </defs>
  <g
     inkscape:label="Layer 1"
     inkscape:groupmode="layer"
     id="layer1">
    <path
       id="path7"
       style="fill:url(#pattern125);fill-opacity:1"
       d="M 135.46667 -10.478432 L 118.53333 -0.70176728 L 118.53333 18.851044 L 135.46667 28.627709 L 152.4 18.851044 L 152.4 -0.70176728 L 135.46667 -10.478432 z M 84.666666 18.851044 L 67.733332 28.627709 L 67.733332 48.18052 L 84.666666 57.956668 L 101.6 48.18052 L 101.6 28.627709 L 84.666666 18.851044 z M 186.26667 18.851044 L 169.33333 28.627709 L 169.33333 48.18052 L 186.26667 57.956668 L 203.2 48.18052 L 203.2 28.627709 L 186.26667 18.851044 z M 33.866666 48.18052 L 16.933332 57.956668 L 16.933332 77.509996 L 33.866666 87.286144 L 50.799999 77.509996 L 50.799999 57.956668 L 33.866666 48.18052 z M 135.46667 48.18052 L 118.53333 57.956668 L 118.53333 77.509996 L 135.46667 87.286144 L 152.4 77.509996 L 152.4 57.956668 L 135.46667 48.18052 z M 237.06667 48.18052 L 220.13333 57.956668 L 220.13333 77.509996 L 237.06667 87.286144 L 254 77.509996 L 254 57.956668 L 237.06667 48.18052 z M 84.666666 77.509996 L 67.733332 87.286144 L 67.733332 106.83896 L 84.666666 116.61562 L 101.6 106.83896 L 101.6 87.286144 L 84.666666 77.509996 z M 186.26667 77.509996 L 169.33333 87.286144 L 169.33333 106.83896 L 186.26667 116.61562 L 203.2 106.83896 L 203.2 87.286144 L 186.26667 77.509996 z M 135.46667 106.83896 L 118.53333 116.61562 L 118.53333 136.16843 L 135.46667 145.9451 L 152.4 136.16843 L 152.4 116.61562 L 135.46667 106.83896 z "
       transform="translate(9.7358091e-7,33.866668)" />
    <path
       id="path8"
       style="fill:url(#pattern124);fill-opacity:1"
       d="M 33.866668 -10.478432 L 16.933335 -0.70176728 L 16.933335 18.851044 L 33.866668 28.627709 L 50.800002 18.851044 L 50.800002 -0.70176728 L 33.866668 -10.478432 z M 135.46667 -10.478432 L 118.53333 -0.70176728 L 118.53333 18.851044 L 135.46667 28.627709 L 152.4 18.851044 L 152.4 -0.70176728 L 135.46667 -10.478432 z M 84.666668 18.851044 L 67.733335 28.627709 L 67.733335 48.18052 L 84.666668 57.956668 L 101.6 48.18052 L 101.6 28.627709 L 84.666668 18.851044 z M 186.26667 18.851044 L 169.33333 28.627709 L 169.33333 48.18052 L 186.26667 57.956668 L 203.2 48.18052 L 203.2 28.627709 L 186.26667 18.851044 z M 33.866668 48.18052 L 16.933335 57.956668 L 16.933335 77.509996 L 33.866668 87.286144 L 50.800002 77.509996 L 50.800002 57.956668 L 33.866668 48.18052 z M 135.46667 48.18052 L 118.53333 57.956668 L 118.53333 77.509996 L 135.46667 87.286144 L 152.4 77.509996 L 152.4 57.956668 L 135.46667 48.18052 z M 84.666668 77.509996 L 67.733335 87.286144 L 67.733335 106.83896 L 84.666668 116.61562 L 101.6 106.83896 L 101.6 87.286144 L 84.666668 77.509996 z M 186.26667 77.509996 L 169.33333 87.286144 L 169.33333 106.83896 L 186.26667 116.61562 L 203.2 106.83896 L 203.2 87.286144 L 186.26667 77.509996 z M 33.866668 106.83896 L 16.933335 116.61562 L 16.933335 136.16843 L 33.866668 145.9451 L 50.800002 136.16843 L 50.800002 116.61562 L 33.866668 106.83896 z M 135.46667 106.83896 L 118.53333 116.61562 L 118.53333 136.16843 L 135.46667 145.9451 L 152.4 136.16843 L 152.4 116.61562 L 135.46667 106.83896 z "
       transform="translate(33.866665,33.866668)" />
    <path
       id="path9"
       style="fill:url(#pattern158);fill-opacity:1"
       d="M 33.866666 -10.478432 L 16.933333 -0.70176728 L 16.933333 18.851044 L 33.866666 28.627709 L 50.799999 18.851044 L 50.799999 -0.70176728 L 33.866666 -10.478432 z M 135.46667 -10.478432 L 118.53333 -0.70176728 L 118.53333 18.851044 L 135.46667 28.627709 L 152.4 18.851044 L 152.4 -0.70176728 L 135.46667 -10.478432 z M -16.933334 18.851044 L -33.866667 28.627709 L -33.866667 48.18052 L -16.933334 57.956668 L -6.6666668e-07 48.18052 L -6.6666668e-07 28.627709 L -16.933334 18.851044 z M 84.666666 18.851044 L 67.733333 28.627709 L 67.733333 48.18052 L 84.666666 57.956668 L 101.6 48.18052 L 101.6 28.627709 L 84.666666 18.851044 z M 33.866666 48.18052 L 16.933333 57.956668 L 16.933333 77.509996 L 33.866666 87.286144 L 50.799999 77.509996 L 50.799999 57.956668 L 33.866666 48.18052 z M 135.46667 48.18052 L 118.53333 57.956668 L 118.53333 77.509996 L 135.46667 87.286144 L 152.4 77.509996 L 152.4 57.956668 L 135.46667 48.18052 z M -16.933334 77.509996 L -33.866667 87.286144 L -33.866667 106.83896 L -16.933334 116.61562 L -6.6666668e-07 106.83896 L -6.6666668e-07 87.286144 L -16.933334 77.509996 z M 84.666666 77.509996 L 67.733333 87.286144 L 67.733333 106.83896 L 84.666666 116.61562 L 101.6 106.83896 L 101.6 87.286144 L 84.666666 77.509996 z M 33.866666 106.83896 L 16.933333 116.61562 L 16.933333 136.16843 L 33.866666 145.9451 L 50.799999 136.16843 L 50.799999 116.61562 L 33.866666 106.83896 z M 135.46667 106.83896 L 118.53333 116.61562 L 118.53333 136.16843 L 135.46667 145.9451 L 152.4 136.16843 L 152.4 116.61562 L 135.46667 106.83896 z "
       transform="translate(67.733334,33.866668)" />
    <path
       style="fill:none;fill-opacity:1;stroke:#808080;stroke-width:2.30000013;stroke-dasharray:none;stroke-opacity:1"
       d="m 16.933332,101.6 33.866665,68.43525 H 220.13332 L 253.99999,101.6 220.13332,33.16474 H 50.799997 L 16.933333,101.6"
       id="path120" />
  </g>
</svg>
